<svg width="50" height="32" viewBox="0 0 50 32" fill="none" xmlns="http://www.w3.org/2000/svg">
<path d="M25.0092 31.4782C39.7914 31.4782 50 19.5316 50 15.7995C50 12.049 39.7731 0.120636 25.0092 0.120636C10.4281 0.120636 0 12.049 0 15.7995C0 19.5316 10.4098 31.4782 25.0092 31.4782ZM25.0092 28.5876C12.9712 28.5876 3.20161 18.379 3.20161 15.7995C3.20161 13.6223 12.9712 3.01126 25.0092 3.01126C37.0105 3.01126 46.7984 13.6223 46.7984 15.7995C46.7984 18.379 37.0105 28.5876 25.0092 28.5876ZM25.0092 26.0447C30.6989 26.0447 35.2728 21.3794 35.2728 15.7995C35.2728 10.0731 30.6989 5.5543 25.0092 5.5543C19.2829 5.5543 14.6908 10.0731 14.7274 15.7995C14.7457 21.3794 19.2829 26.0447 25.0092 26.0447ZM25.0092 19.2023C23.1065 19.2023 21.5697 17.6655 21.5697 15.7995C21.5697 13.9151 23.1065 12.3966 25.0092 12.3966C26.8936 12.3966 28.4304 13.9151 28.4304 15.7995C28.4304 17.6655 26.8936 19.2023 25.0092 19.2023Z" fill="#555555"/>
</svg>
