<svg width="50" height="33" viewBox="0 0 50 33" fill="none" xmlns="http://www.w3.org/2000/svg">
<path d="M39.0373 32.51C39.3076 32.7804 39.6865 32.9246 40.0288 32.9246C40.75 32.9246 41.4173 32.2755 41.4173 31.5363C41.4173 31.1756 41.2733 30.815 41.0026 30.5446L10.8366 0.396607C10.5662 0.12616 10.2056 0 9.845 0C9.12375 0 8.45652 0.649107 8.45652 1.37036C8.45652 1.74893 8.58277 2.10964 8.85321 2.36205L39.0373 32.51ZM25.009 1.42437C21.8717 1.42437 19.0408 1.96536 16.3903 2.84884L18.7523 5.21089C20.7537 4.61589 22.7732 4.2733 25.009 4.2733C37.2341 4.2733 46.8446 14.7313 46.8446 16.8771C46.8446 18.3376 43.6891 22.2683 38.6946 25.3336L40.9125 27.5514C46.6104 23.8551 50 19.0046 50 16.8771C50 13.1807 39.9387 1.42437 25.009 1.42437ZM25.009 32.3296C28.3629 32.3296 31.4281 31.7346 34.223 30.779L31.8609 28.4169C29.7152 29.084 27.4432 29.4807 25.009 29.4807C12.784 29.4807 3.15545 19.4195 3.15545 16.8771C3.15545 15.6149 6.5092 11.4137 11.8104 8.22214L9.57446 5.98625C3.57018 9.70063 0 14.6953 0 16.8771C0 20.5554 10.2596 32.3296 25.009 32.3296ZM34.2588 20.8258C34.8179 19.6178 35.1245 18.2654 35.1245 16.8771C35.1245 11.2333 30.6167 6.77964 25.009 6.77964C23.5846 6.77964 22.2503 7.08616 21.0422 7.60911L34.2588 20.8258ZM25.009 26.9745C26.5958 26.9745 28.0924 26.5778 29.4267 25.9286L15.9214 12.4054C15.2363 13.7396 14.8756 15.2543 14.8756 16.8771C14.8756 22.3765 19.3654 26.9745 25.009 26.9745Z" fill="#555555"/>
</svg>
